<svg width="1152" height="67" viewBox="0 0 1152 67" fill="none" xmlns="http://www.w3.org/2000/svg">
<path d="M742.428 24.6318H745.03L739.626 42.1464H736.773L742.428 24.6318ZM746.156 24.6318L751.936 42.1464H749.084L743.529 24.6318H746.156ZM739.501 35.6911H748.934V38.0931H739.501V35.6911Z" fill="white"></path>
<path d="M720.391 24.6318H723.118V42.1464H720.391V24.6318ZM721.767 33.3641H726.446V35.7661H721.767V33.3641ZM726.446 33.3641C727.447 33.3641 728.297 33.2724 728.998 33.0889C729.715 32.9054 730.257 32.5885 730.624 32.1381C731.008 31.671 731.2 31.0205 731.2 30.1865C731.2 29.3524 731.008 28.7102 730.624 28.2599C730.257 27.7928 729.715 27.4759 728.998 27.3091C728.297 27.1256 727.447 27.0338 726.446 27.0338V24.6318C727.997 24.6318 729.34 24.807 730.474 25.1573C731.625 25.5076 732.509 26.083 733.126 26.8837C733.76 27.6844 734.077 28.7853 734.077 30.1865C734.077 31.5543 733.76 32.6469 733.126 33.4642C732.509 34.2816 731.625 34.8737 730.474 35.2407C729.34 35.591 727.997 35.7661 726.446 35.7661V33.3641ZM721.767 24.6318H726.446V27.0338H721.767V24.6318ZM727.271 34.0647H729.999L733.927 42.1464H730.824L727.271 34.0647Z" fill="white"></path>
<path d="M704.699 42.1464V24.6318H716.734V27.0589H707.426V32.1381H715.733V34.5401H707.426V39.7194H716.834V42.1464H704.699Z" fill="white"></path>
<path d="M688.029 24.6318H690.757V42.1464H688.029V24.6318ZM689.405 33.6143H693.809V36.0163H689.405V33.6143ZM693.809 33.6143C694.827 33.6143 695.686 33.5226 696.386 33.3391C697.104 33.1556 697.646 32.822 698.013 32.3383C698.396 31.8545 698.588 31.179 698.588 30.3116C698.588 29.4275 698.396 28.7519 698.013 28.2849C697.646 27.8011 697.104 27.4759 696.386 27.3091C695.686 27.1256 694.827 27.0338 693.809 27.0338V24.6318C695.377 24.6318 696.728 24.8153 697.862 25.1823C699.013 25.5493 699.898 26.1498 700.515 26.9838C701.132 27.8011 701.44 28.9104 701.44 30.3116C701.44 31.6794 701.132 32.7886 700.515 33.6393C699.898 34.4734 699.013 35.0822 697.862 35.4659C696.728 35.8328 695.377 36.0163 693.809 36.0163V33.6143ZM689.405 24.6318H693.809V27.0338H689.405V24.6318Z" fill="white"></path>
<path d="M684.141 34.6402C684.141 36.2916 683.916 37.7094 683.466 38.8937C683.015 40.0614 682.281 40.9621 681.264 41.596C680.263 42.2298 678.937 42.5468 677.285 42.5468C675.634 42.5468 674.3 42.2298 673.282 41.596C672.281 40.9621 671.556 40.0614 671.105 38.8937C670.655 37.7094 670.43 36.2916 670.43 34.6402H673.157C673.157 35.7745 673.274 36.7419 673.507 37.5426C673.757 38.3433 674.183 38.9605 674.783 39.3941C675.384 39.8112 676.218 40.0197 677.285 40.0197C678.353 40.0197 679.187 39.8112 679.787 39.3941C680.388 38.9605 680.805 38.3433 681.039 37.5426C681.289 36.7419 681.414 35.7745 681.414 34.6402H684.141ZM670.43 24.6318H673.157V34.6402H670.43V24.6318ZM681.414 24.6318H684.141V34.6402H681.414V24.6318Z" fill="white"></path>
<path d="M667.187 35.0164C667.071 36.5177 666.687 37.8354 666.036 38.9697C665.403 40.104 664.51 40.9881 663.359 41.6219C662.225 42.2391 660.832 42.5477 659.181 42.5477C657.329 42.5477 655.753 42.139 654.452 41.3217C653.167 40.4876 652.191 39.3784 651.524 37.9939C650.857 36.6094 650.523 35.0665 650.523 33.365C650.523 32.114 650.707 30.938 651.074 29.8371C651.458 28.7195 652.016 27.7437 652.75 26.9097C653.484 26.0756 654.385 25.4251 655.453 24.958C656.537 24.4743 657.779 24.2324 659.181 24.2324C661.533 24.2324 663.367 24.8579 664.685 26.109C666.02 27.3433 666.82 29.0114 667.087 31.1132H664.16C664.076 30.546 663.926 30.0039 663.709 29.4868C663.493 28.9697 663.192 28.511 662.809 28.1107C662.425 27.6936 661.933 27.3684 661.332 27.1348C660.749 26.9013 660.031 26.7846 659.181 26.7846C657.863 26.7846 656.77 27.0931 655.903 27.7103C655.052 28.3275 654.418 29.1365 654.001 30.1373C653.584 31.1382 653.376 32.2141 653.376 33.365C653.376 34.5327 653.584 35.6253 654.001 36.6428C654.418 37.6436 655.052 38.4526 655.903 39.0698C656.77 39.687 657.863 39.9956 659.181 39.9956C660.098 39.9956 660.865 39.8621 661.483 39.5952C662.116 39.3117 662.634 38.9364 663.034 38.4693C663.434 38.0022 663.734 37.4768 663.935 36.893C664.135 36.2925 664.26 35.667 664.31 35.0164H667.187Z" fill="white"></path>
<path d="M635.896 42.1464V24.6318H647.932V27.0589H638.624V32.1381H646.931V34.5401H638.624V39.7194H648.032V42.1464H635.896Z" fill="white"></path>
<path d="M618.52 24.6318H621.247V42.1464H618.52V24.6318ZM619.896 33.3641H624.575V35.7661H619.896V33.3641ZM624.575 33.3641C625.575 33.3641 626.426 33.2724 627.127 33.0889C627.844 32.9054 628.386 32.5885 628.753 32.1381C629.137 31.671 629.329 31.0205 629.329 30.1865C629.329 29.3524 629.137 28.7102 628.753 28.2599C628.386 27.7928 627.844 27.4759 627.127 27.3091C626.426 27.1256 625.575 27.0338 624.575 27.0338V24.6318C626.126 24.6318 627.469 24.807 628.603 25.1573C629.754 25.5076 630.638 26.083 631.255 26.8837C631.889 27.6844 632.206 28.7853 632.206 30.1865C632.206 31.5543 631.889 32.6469 631.255 33.4642C630.638 34.2816 629.754 34.8737 628.603 35.2407C627.469 35.591 626.126 35.7661 624.575 35.7661V33.3641ZM619.896 24.6318H624.575V27.0338H619.896V24.6318ZM625.4 34.0647H628.128L632.056 42.1464H628.953L625.4 34.0647Z" fill="white"></path>
<path d="M798.02 64.7247V66.7317H608.362V64.7247H798.02ZM829.379 33.3659C829.379 16.0468 815.34 2.00697 798.02 2.00697H608.362C591.043 2.00697 577.003 16.0468 577.003 33.3659C577.003 50.6849 591.043 64.7247 608.362 64.7247V66.7317L607.931 66.7288C589.702 66.4979 574.996 51.6494 574.996 33.3659C574.996 15.0823 589.702 0.233802 607.931 0.0029399L608.362 0H798.02C816.448 0 831.386 14.9384 831.386 33.3659C831.386 51.7933 816.448 66.7317 798.02 66.7317V64.7247C815.34 64.7247 829.379 50.6849 829.379 33.3659Z" fill="white"></path>
<path d="M1059.28 24.6318H1061.88L1056.47 42.1464H1053.62L1059.28 24.6318ZM1063 24.6318L1068.78 42.1464H1065.93L1060.38 24.6318H1063ZM1056.35 35.6911H1065.78V38.0931H1056.35V35.6911Z" fill="white"></path>
<path d="M1038.01 24.6318H1050.9V26.2082L1048.95 27.0338H1038.01V24.6318ZM1039.92 42.1464L1037.76 40.5701L1048.77 24.6318H1050.9V26.2082L1039.92 42.1464ZM1051 42.1464H1037.76V40.5701L1039.72 39.7444H1051V42.1464Z" fill="white"></path>
<path d="M1031.64 24.6318H1034.37V42.1464H1031.64V24.6318Z" fill="white"></path>
<path d="M1020.24 24.6318H1022.99V42.1464H1020.24V24.6318ZM1014.73 24.6318H1028.49V27.0338H1014.73V24.6318Z" fill="white"></path>
<path d="M1004.86 24.6318H1007.47L1002.06 42.1464H999.209L1004.86 24.6318ZM1008.59 24.6318L1014.37 42.1464H1011.52L1005.96 24.6318H1008.59ZM1001.94 35.6911H1011.37V38.0931H1001.94V35.6911Z" fill="white"></path>
<path d="M985.477 42.1464L980.298 24.6318H983.125L988.08 42.1464H985.477ZM989.331 42.1464H986.703L991.683 24.6318H994.485L989.331 42.1464ZM978.797 24.6318H981.399V42.1464H978.797V24.6318ZM993.384 24.6318H996.011V42.1464H993.384V24.6318Z" fill="white"></path>
<path d="M966.788 42.5477C964.937 42.5477 963.36 42.139 962.059 41.3217C960.775 40.4876 959.799 39.3784 959.132 37.9939C958.464 36.6094 958.131 35.0665 958.131 33.365C958.131 32.114 958.314 30.938 958.681 29.8371C959.065 28.7195 959.624 27.7437 960.358 26.9097C961.092 26.0756 961.992 25.4251 963.06 24.958C964.144 24.4743 965.387 24.2324 966.788 24.2324C968.173 24.2324 969.399 24.4743 970.466 24.958C971.55 25.4251 972.459 26.0756 973.193 26.9097C973.927 27.7437 974.478 28.7195 974.845 29.8371C975.228 30.938 975.42 32.114 975.42 33.365C975.42 35.0665 975.087 36.6094 974.419 37.9939C973.752 39.3784 972.776 40.4876 971.492 41.3217C970.208 42.139 968.64 42.5477 966.788 42.5477ZM966.763 39.9956C968.081 39.9956 969.165 39.687 970.016 39.0698C970.866 38.4526 971.5 37.6436 971.917 36.6428C972.334 35.6253 972.543 34.5327 972.543 33.365C972.543 32.2141 972.334 31.1382 971.917 30.1373C971.5 29.1365 970.866 28.3275 970.016 27.7103C969.165 27.0931 968.081 26.7846 966.763 26.7846C965.462 26.7846 964.378 27.0931 963.51 27.7103C962.66 28.3275 962.026 29.1365 961.609 30.1373C961.192 31.1382 960.983 32.2141 960.983 33.365C960.983 34.5327 961.192 35.6253 961.609 36.6428C962.026 37.6436 962.66 38.4526 963.51 39.0698C964.378 39.687 965.462 39.9956 966.763 39.9956Z" fill="white"></path>
<path d="M948.403 24.6318H951.155V42.1464H948.403V24.6318ZM942.898 24.6318H956.66V27.0338H942.898V24.6318Z" fill="white"></path>
<path d="M939.809 34.6402C939.809 36.2916 939.584 37.7094 939.134 38.8937C938.683 40.0614 937.949 40.9621 936.932 41.596C935.931 42.2298 934.605 42.5468 932.953 42.5468C931.302 42.5468 929.968 42.2298 928.95 41.596C927.949 40.9621 927.224 40.0614 926.773 38.8937C926.323 37.7094 926.098 36.2916 926.098 34.6402H928.825C928.825 35.7745 928.942 36.7419 929.175 37.5426C929.425 38.3433 929.851 38.9605 930.451 39.3941C931.052 39.8112 931.886 40.0197 932.953 40.0197C934.021 40.0197 934.855 39.8112 935.455 39.3941C936.056 38.9605 936.473 38.3433 936.707 37.5426C936.957 36.7419 937.082 35.7745 937.082 34.6402H939.809ZM926.098 24.6318H928.825V34.6402H926.098V24.6318ZM937.082 24.6318H939.809V34.6402H937.082V24.6318Z" fill="white"></path>
<path d="M914.383 24.6318H916.985L911.581 42.1464H908.729L914.383 24.6318ZM918.111 24.6318L923.891 42.1464H921.039L915.484 24.6318H918.111ZM911.456 35.6911H920.889V38.0931H911.456V35.6911Z" fill="white"></path>
<path d="M1118.63 64.7247V66.7317H898.37V64.7247H1118.63ZM1149.99 33.3659C1149.99 16.0468 1135.95 2.00697 1118.63 2.00697H898.37C881.051 2.00697 867.011 16.0468 867.011 33.3659C867.011 50.6849 881.051 64.7247 898.37 64.7247V66.7317L897.939 66.7288C879.71 66.4979 865.004 51.6494 865.004 33.3659C865.004 15.0823 879.71 0.233803 897.939 0.0029399L898.37 0H1118.63C1137.06 0 1152 14.9384 1152 33.3659C1152 51.7933 1137.06 66.7317 1118.63 66.7317V64.7247C1135.95 64.7247 1149.99 50.6849 1149.99 33.3659Z" fill="white"></path>
<path d="M865.003 31.6104V33.6173H831.387V31.6104H865.003Z" fill="white"></path>
<path d="M574.997 31.6104V33.6173H539.875V31.6104H574.997Z" fill="white"></path>
<path d="M297.032 31.6104V33.6173H261.91V31.6104H297.032Z" fill="white"></path>
<path d="M449.748 24.6318H452.351L446.946 42.1464H444.094L449.748 24.6318ZM453.477 24.6318L459.256 42.1464H456.404L450.849 24.6318H453.477ZM446.821 35.6911H456.254V38.0931H446.821V35.6911Z" fill="white"></path>
<path d="M427.713 24.6318H430.44V42.1464H427.713V24.6318ZM429.089 33.3641H433.768V35.7661H429.089V33.3641ZM433.768 33.3641C434.769 33.3641 435.619 33.2724 436.32 33.0889C437.037 32.9054 437.579 32.5885 437.946 32.1381C438.33 31.671 438.522 31.0205 438.522 30.1865C438.522 29.3524 438.33 28.7102 437.946 28.2599C437.579 27.7928 437.037 27.4759 436.32 27.3091C435.619 27.1256 434.769 27.0338 433.768 27.0338V24.6318C435.319 24.6318 436.662 24.807 437.796 25.1573C438.947 25.5076 439.831 26.083 440.449 26.8837C441.082 27.6844 441.399 28.7853 441.399 30.1865C441.399 31.5543 441.082 32.6469 440.449 33.4642C439.831 34.2816 438.947 34.8737 437.796 35.2407C436.662 35.591 435.319 35.7661 433.768 35.7661V33.3641ZM429.089 24.6318H433.768V27.0338H429.089V24.6318ZM434.594 34.0647H437.321L441.249 42.1464H438.147L434.594 34.0647Z" fill="white"></path>
<path d="M423.825 34.6402C423.825 36.2916 423.6 37.7094 423.149 38.8937C422.699 40.0614 421.965 40.9621 420.947 41.596C419.946 42.2298 418.62 42.5468 416.969 42.5468C415.318 42.5468 413.983 42.2298 412.966 41.596C411.965 40.9621 411.239 40.0614 410.789 38.8937C410.338 37.7094 410.113 36.2916 410.113 34.6402H412.841C412.841 35.7745 412.957 36.7419 413.191 37.5426C413.441 38.3433 413.866 38.9605 414.467 39.3941C415.067 39.8112 415.901 40.0197 416.969 40.0197C418.037 40.0197 418.871 39.8112 419.471 39.3941C420.072 38.9605 420.489 38.3433 420.722 37.5426C420.972 36.7419 421.097 35.7745 421.097 34.6402H423.825ZM410.113 24.6318H412.841V34.6402H410.113V24.6318ZM421.097 24.6318H423.825V34.6402H421.097V24.6318Z" fill="white"></path>
<path d="M398.786 24.6318H401.538V42.1464H398.786V24.6318ZM393.281 24.6318H407.043V27.0338H393.281V24.6318Z" fill="white"></path>
<path d="M377.803 24.6318H380.53V42.1464H377.803V24.6318ZM379.179 33.6143H383.583V36.0163H379.179V33.6143ZM383.583 33.6143C384.6 33.6143 385.459 33.5226 386.16 33.3391C386.877 33.1556 387.419 32.822 387.786 32.3383C388.17 31.8545 388.362 31.179 388.362 30.3116C388.362 29.4275 388.17 28.7519 387.786 28.2849C387.419 27.8011 386.877 27.4759 386.16 27.3091C385.459 27.1256 384.6 27.0338 383.583 27.0338V24.6318C385.151 24.6318 386.502 24.8153 387.636 25.1823C388.787 25.5493 389.671 26.1498 390.288 26.9838C390.905 27.8011 391.214 28.9104 391.214 30.3116C391.214 31.6794 390.905 32.7886 390.288 33.6393C389.671 34.4734 388.787 35.0822 387.636 35.4659C386.502 35.8328 385.151 36.0163 383.583 36.0163V33.6143ZM379.179 24.6318H383.583V27.0338H379.179V24.6318Z" fill="white"></path>
<path d="M365.084 24.6318H367.687L362.282 42.1464H359.43L365.084 24.6318ZM368.813 24.6318L374.592 42.1464H371.74L366.185 24.6318H368.813ZM362.157 35.6911H371.59V38.0931H362.157V35.6911Z" fill="white"></path>
<path d="M357.621 35.0164C357.504 36.5177 357.121 37.8354 356.47 38.9697C355.836 40.104 354.944 40.9881 353.793 41.6219C352.658 42.2391 351.266 42.5477 349.614 42.5477C347.763 42.5477 346.186 42.139 344.885 41.3217C343.601 40.4876 342.625 39.3784 341.958 37.9939C341.291 36.6094 340.957 35.0665 340.957 33.365C340.957 32.114 341.141 30.938 341.507 29.8371C341.891 28.7195 342.45 27.7437 343.184 26.9097C343.918 26.0756 344.819 25.4251 345.886 24.958C346.97 24.4743 348.213 24.2324 349.614 24.2324C351.966 24.2324 353.801 24.8579 355.119 26.109C356.453 27.3433 357.254 29.0114 357.521 31.1132H354.593C354.51 30.546 354.36 30.0039 354.143 29.4868C353.926 28.9697 353.626 28.511 353.242 28.1107C352.859 27.6936 352.367 27.3684 351.766 27.1348C351.182 26.9013 350.465 26.7846 349.614 26.7846C348.296 26.7846 347.204 27.0931 346.337 27.7103C345.486 28.3275 344.852 29.1365 344.435 30.1373C344.018 31.1382 343.809 32.2141 343.809 33.365C343.809 34.5327 344.018 35.6253 344.435 36.6428C344.852 37.6436 345.486 38.4526 346.337 39.0698C347.204 39.687 348.296 39.9956 349.614 39.9956C350.532 39.9956 351.299 39.8621 351.916 39.5952C352.55 39.3117 353.067 38.9364 353.467 38.4693C353.868 38.0022 354.168 37.4768 354.368 36.893C354.568 36.2925 354.693 35.667 354.744 35.0164H357.621Z" fill="white"></path>
<path d="M506.508 64.7247V66.7317H329.393V64.7247H506.508ZM537.867 33.3659C537.867 16.0468 523.827 2.00697 506.508 2.00697H329.393C312.074 2.00697 298.034 16.0468 298.034 33.3659C298.034 50.6849 312.074 64.7247 329.393 64.7247V66.7317C310.966 66.7317 296.027 51.7933 296.027 33.3659C296.027 14.9384 310.966 1.03441e-06 329.393 0H506.508L506.939 0.0029399C525.168 0.233804 539.874 15.0823 539.874 33.3659C539.874 51.6494 525.168 66.4979 506.939 66.7288L506.508 66.7317V64.7247C523.827 64.7247 537.867 50.6849 537.867 33.3659Z" fill="white"></path>
<path d="M498.21 41.2921L494.995 44.4375C494.833 44.5958 494.616 44.6841 494.39 44.6831C494.164 44.6821 493.948 44.592 493.788 44.4322L490.719 41.3606C490.638 41.2803 490.574 41.1848 490.531 41.0795C490.488 40.9744 490.466 40.8617 490.467 40.7479C490.468 40.6342 490.491 40.5219 490.536 40.4173C490.581 40.3127 490.646 40.2181 490.727 40.1389L493.942 37.0309L498.21 41.2921ZM482.992 32.4225C482.832 32.5832 482.742 32.8005 482.742 33.027C482.742 33.2535 482.832 33.4708 482.992 33.6314L486.061 36.703C486.141 36.7832 486.236 36.8468 486.341 36.89C486.446 36.9332 486.559 36.955 486.672 36.9545C486.785 36.9538 486.898 36.9307 487.002 36.8864C487.107 36.8422 487.201 36.7777 487.281 36.6965L490.408 33.4899L486.143 29.2256L482.992 32.4225Z" fill="white" fill-opacity="0.24"></path>
<path d="M502.354 25.2039C501.482 24.3141 500.442 23.6071 499.293 23.124C498.145 22.641 496.912 22.3917 495.666 22.3907H495.631C494.391 22.3875 493.163 22.6303 492.017 23.1051C490.872 23.5799 489.832 24.2773 488.958 25.1568L485.54 28.6184L482.378 31.8218C482.06 32.1439 481.882 32.5789 481.883 33.032C481.884 33.485 482.064 33.9191 482.385 34.2396L485.456 37.3111C485.615 37.4709 485.804 37.5976 486.013 37.6839C486.221 37.7701 486.444 37.8143 486.669 37.8137H486.679C486.906 37.8126 487.131 37.7663 487.34 37.6775C487.549 37.5889 487.738 37.4595 487.897 37.2972L494.423 30.6097C494.742 30.2941 495.171 30.1153 495.62 30.1111C496.068 30.1069 496.5 30.2777 496.825 30.5872C496.985 30.743 497.113 30.9295 497.2 31.1354C497.287 31.3414 497.332 31.5627 497.332 31.7864C497.334 32.0244 497.289 32.2605 497.2 32.4812C497.111 32.7019 496.979 32.9028 496.812 33.0725L490.136 39.5253C489.973 39.6836 489.843 39.8727 489.754 40.0817C489.665 40.2908 489.618 40.5154 489.616 40.7426C489.615 40.97 489.658 41.1953 489.744 41.4056C489.83 41.6159 489.958 41.807 490.118 41.9677L493.19 45.0393C493.51 45.3576 493.942 45.5372 494.394 45.5396C494.845 45.542 495.28 45.367 495.603 45.0521L502.226 38.5736C505.919 34.8762 505.975 28.881 502.354 25.2039ZM486.669 36.0969L483.599 33.0264L486.15 30.4414L489.206 33.4979L486.669 36.0969ZM494.401 43.825L491.327 40.7545L493.94 38.2285L496.995 41.2872L494.401 43.825ZM501.02 37.3475L498.221 40.0847L495.173 37.0389L498.007 34.2985L498.018 34.2889C498.347 33.9575 498.606 33.5644 498.782 33.1322C498.958 32.6998 499.047 32.2371 499.043 31.7703C499.042 31.3193 498.949 30.8734 498.772 30.4588C498.594 30.0442 498.335 29.6695 498.01 29.3568C497.359 28.7374 496.492 28.3965 495.593 28.4065C494.695 28.4165 493.836 28.7767 493.198 29.4104L490.403 32.2697L487.35 29.2218L490.174 26.3657C490.889 25.6467 491.739 25.0766 492.676 24.6887C493.613 24.3007 494.617 24.1024 495.631 24.1054H495.66C496.679 24.1063 497.688 24.3103 498.627 24.7056C499.567 25.1008 500.418 25.6794 501.131 26.4075C504.096 29.4158 504.042 34.3274 501.02 37.3497V37.3475Z" fill="white"></path>
<path d="M165.534 24.6318H168.136L162.731 42.1464H159.879L165.534 24.6318ZM169.262 24.6318L175.042 42.1464H172.189L166.635 24.6318H169.262ZM162.606 35.6911H172.039V38.0931H162.606V35.6911Z" fill="white"></path>
<path d="M158.07 35.0164C157.953 36.5177 157.57 37.8354 156.919 38.9697C156.285 40.104 155.393 40.9881 154.242 41.6219C153.108 42.2391 151.715 42.5477 150.063 42.5477C148.212 42.5477 146.636 42.139 145.335 41.3217C144.05 40.4876 143.074 39.3784 142.407 37.9939C141.74 36.6094 141.406 35.0665 141.406 33.365C141.406 32.114 141.59 30.938 141.957 29.8371C142.34 28.7195 142.899 27.7437 143.633 26.9097C144.367 26.0756 145.268 25.4251 146.335 24.958C147.42 24.4743 148.662 24.2324 150.063 24.2324C152.415 24.2324 154.25 24.8579 155.568 26.109C156.903 27.3433 157.703 29.0114 157.97 31.1132H155.043C154.959 30.546 154.809 30.0039 154.592 29.4868C154.375 28.9697 154.075 28.511 153.691 28.1107C153.308 27.6936 152.816 27.3684 152.215 27.1348C151.631 26.9013 150.914 26.7846 150.063 26.7846C148.746 26.7846 147.653 27.0931 146.786 27.7103C145.935 28.3275 145.301 29.1365 144.884 30.1373C144.467 31.1382 144.259 32.2141 144.259 33.365C144.259 34.5327 144.467 35.6253 144.884 36.6428C145.301 37.6436 145.935 38.4526 146.786 39.0698C147.653 39.687 148.746 39.9956 150.063 39.9956C150.981 39.9956 151.748 39.8621 152.365 39.5952C152.999 39.3117 153.516 38.9364 153.917 38.4693C154.317 38.0022 154.617 37.4768 154.817 36.893C155.018 36.2925 155.143 35.667 155.193 35.0164H158.07Z" fill="white"></path>
<path d="M135.281 24.6318H138.009V42.1464H135.281V24.6318Z" fill="white"></path>
<path d="M120.029 24.6318H122.757V42.1464H120.029V24.6318ZM122.156 32.6385H130.963V35.0405H122.156V32.6385ZM121.405 24.6318H131.964V27.0589H121.405V24.6318Z" fill="white"></path>
<path d="M113.305 24.6318H116.032V42.1464H113.305V24.6318Z" fill="white"></path>
<path d="M99.8379 24.6318H102.565V42.1464H99.8379V24.6318ZM101.99 39.7444H110.347V42.1464H101.99V39.7444Z" fill="white"></path>
<path d="M87.1176 24.6318H89.7198L84.3153 42.1464H81.4629L87.1176 24.6318ZM90.8457 24.6318L96.6255 42.1464H93.7732L88.2185 24.6318H90.8457ZM84.1902 35.6911H93.623V38.0931H84.1902V35.6911Z" fill="white"></path>
<path d="M79.2544 34.6402C79.2544 36.2916 79.0292 37.7094 78.5788 38.8937C78.1285 40.0614 77.3945 40.9621 76.377 41.596C75.3762 42.2298 74.0501 42.5468 72.3987 42.5468C70.7473 42.5468 69.4129 42.2298 68.3953 41.596C67.3945 40.9621 66.6689 40.0614 66.2185 38.8937C65.7682 37.7094 65.543 36.2916 65.543 34.6402H68.2702C68.2702 35.7745 68.387 36.7419 68.6205 37.5426C68.8707 38.3433 69.2961 38.9605 69.8966 39.3941C70.4971 39.8112 71.3311 40.0197 72.3987 40.0197C73.4662 40.0197 74.3003 39.8112 74.9008 39.3941C75.5013 38.9605 75.9183 38.3433 76.1518 37.5426C76.402 36.7419 76.5271 35.7745 76.5271 34.6402H79.2544ZM65.543 24.6318H68.2702V34.6402H65.543V24.6318ZM76.5271 24.6318H79.2544V34.6402H76.5271V24.6318Z" fill="white"></path>
<path d="M53.5869 42.5477C51.7354 42.5477 50.159 42.139 48.858 41.3217C47.5736 40.4876 46.5977 39.3784 45.9305 37.9939C45.2633 36.6094 44.9297 35.0665 44.9297 33.365C44.9297 32.114 45.1132 30.938 45.4801 29.8371C45.8638 28.7195 46.4226 27.7437 47.1565 26.9097C47.8905 26.0756 48.7912 25.4251 49.8588 24.958C50.943 24.4743 52.1857 24.2324 53.5869 24.2324C54.9714 24.2324 56.1974 24.4743 57.265 24.958C58.3492 25.4251 59.2583 26.0756 59.9922 26.9097C60.7262 27.7437 61.2767 28.7195 61.6436 29.8371C62.0273 30.938 62.2191 32.114 62.2191 33.365C62.2191 35.0665 61.8855 36.6094 61.2183 37.9939C60.551 39.3784 59.5752 40.4876 58.2908 41.3217C57.0064 42.139 55.4385 42.5477 53.5869 42.5477ZM52.1857 47.1515V41.3467H54.938V44.7495H58.441V47.1515H52.1857ZM53.5619 39.9956C54.546 39.9956 55.3884 39.8121 56.089 39.4451C56.8063 39.0781 57.3984 38.5861 57.8655 37.9689C58.3325 37.335 58.6745 36.6178 58.8913 35.8171C59.1082 35.0164 59.2166 34.1991 59.2166 33.365C59.2166 32.531 59.1082 31.722 58.8913 30.938C58.6745 30.154 58.3325 29.4534 57.8655 28.8363C57.3984 28.2024 56.8063 27.702 56.089 27.335C55.3884 26.968 54.546 26.7846 53.5619 26.7846C52.5944 26.7846 51.7437 26.968 51.0098 27.335C50.2925 27.702 49.692 28.2024 49.2083 28.8363C48.7245 29.4534 48.3659 30.154 48.1324 30.938C47.8988 31.722 47.7821 32.531 47.7821 33.365C47.7821 34.1991 47.8988 35.0164 48.1324 35.8171C48.3659 36.6178 48.7245 37.335 49.2083 37.9689C49.692 38.5861 50.2925 39.0781 51.0098 39.4451C51.7437 39.8121 52.5944 39.9956 53.5619 39.9956Z" fill="white"></path>
<path d="M228.544 64.7247V66.7317H33.3659V64.7247H228.544ZM259.902 33.3659C259.902 16.0468 245.863 2.00697 228.544 2.00697H33.3659C16.0468 2.00697 2.00697 16.0468 2.00697 33.3659C2.00697 50.6849 16.0468 64.7247 33.3659 64.7247V66.7317L32.9347 66.7288C14.7059 66.4979 0 51.6494 0 33.3659C0 15.0823 14.7059 0.233802 32.9347 0.0029399L33.3659 0H228.544C246.971 0 261.909 14.9384 261.909 33.3659C261.909 51.7933 246.971 66.7317 228.544 66.7317V64.7247C245.863 64.7247 259.902 50.6849 259.902 33.3659Z" fill="white"></path>
<path d="M200.148 29.9619H205.51V42.4741H199.254V30.8556C199.254 30.6186 199.348 30.3913 199.516 30.2237C199.683 30.0561 199.911 29.9619 200.148 29.9619ZM219.81 34.4306H214.447V42.4741H220.703V35.3243C220.703 35.0872 220.609 34.8599 220.442 34.6923C220.274 34.5247 220.047 34.4306 219.81 34.4306Z" fill="white" fill-opacity="0.24"></path>
<path d="M208.237 30.6917C208.199 30.5803 208.185 30.4628 208.193 30.3457C208.201 30.2286 208.233 30.1143 208.285 30.0093C208.338 29.9043 208.41 29.8107 208.499 29.7338C208.588 29.6569 208.69 29.5982 208.802 29.5611L210.142 29.1142C210.277 29.0694 210.42 29.0572 210.56 29.0786C210.7 29.0999 210.833 29.1543 210.948 29.2371C211.063 29.3199 211.156 29.4288 211.221 29.5549C211.285 29.6809 211.319 29.8205 211.319 29.9622V34.4308C211.319 34.6679 211.225 34.8952 211.057 35.0628C210.889 35.2303 210.662 35.3245 210.425 35.3245C210.188 35.3245 209.961 35.2303 209.793 35.0628C209.626 34.8952 209.531 34.6679 209.531 34.4308V31.2022L209.367 31.2569C209.256 31.294 209.138 31.3089 209.021 31.3006C208.904 31.2922 208.79 31.261 208.685 31.2085C208.58 31.1559 208.486 31.0833 208.409 30.9946C208.332 30.9059 208.274 30.803 208.237 30.6917ZM223.384 42.4743C223.384 42.7114 223.29 42.9388 223.122 43.1063C222.955 43.2739 222.727 43.3681 222.49 43.3681H197.466C197.229 43.3681 197.002 43.2739 196.834 43.1063C196.666 42.9388 196.572 42.7114 196.572 42.4743C196.572 42.2373 196.666 42.0099 196.834 41.8424C197.002 41.6748 197.229 41.5806 197.466 41.5806H198.36V30.8559C198.36 30.3818 198.548 29.9272 198.883 29.592C199.218 29.2567 199.673 29.0684 200.147 29.0684H204.616V25.4935C204.616 25.0194 204.804 24.5648 205.139 24.2296C205.475 23.8944 205.929 23.7061 206.403 23.7061H213.553C214.027 23.7061 214.482 23.8944 214.817 24.2296C215.152 24.5648 215.341 25.0194 215.341 25.4935V33.5371H219.809C220.283 33.5371 220.738 33.7254 221.073 34.0606C221.408 34.3958 221.597 34.8505 221.597 35.3245V41.5806H222.49C222.727 41.5806 222.955 41.6748 223.122 41.8424C223.29 42.0099 223.384 42.2373 223.384 42.4743ZM215.341 35.3245V41.5806H219.809V35.3245H215.341ZM206.403 41.5806H213.553V25.4935H206.403V41.5806ZM200.147 41.5806H204.616V30.8559H200.147V41.5806Z" fill="white"></path>
<g clip-path="url(#clip0_400_2294)">
<path d="M779.28 23.7646V35.493L773.416 29.6288L779.28 23.7646Z" fill="white" fill-opacity="0.24"></path>
<path d="M790.033 28.6501H780.259V23.7633C780.259 23.5699 780.202 23.3808 780.095 23.2199C779.987 23.059 779.835 22.9336 779.656 22.8596C779.477 22.7856 779.281 22.7662 779.091 22.804C778.901 22.8418 778.727 22.935 778.59 23.0718L772.726 28.936C772.635 29.0267 772.563 29.1345 772.514 29.2532C772.465 29.3718 772.439 29.499 772.439 29.6275C772.439 29.7559 772.465 29.8831 772.514 30.0017C772.563 30.1204 772.635 30.2282 772.726 30.3189L778.59 36.1831C778.727 36.3199 778.901 36.4131 779.091 36.4509C779.281 36.4886 779.477 36.4693 779.656 36.3953C779.835 36.3213 779.987 36.1959 780.095 36.035C780.202 35.8741 780.259 35.685 780.259 35.4916V30.6048H790.033C791.588 30.6048 793.079 31.2226 794.179 32.3224C795.279 33.4222 795.897 34.9138 795.897 36.469C795.897 38.0242 795.279 39.5158 794.179 40.6155C793.079 41.7153 791.588 42.3331 790.033 42.3331H779.282C779.023 42.3331 778.774 42.4361 778.591 42.6194C778.407 42.8026 778.304 43.0512 778.304 43.3105C778.304 43.5697 778.407 43.8183 778.591 44.0016C778.774 44.1849 779.023 44.2879 779.282 44.2879H790.033C792.106 44.2879 794.095 43.4641 795.561 41.9978C797.028 40.5314 797.852 38.5427 797.852 36.469C797.852 34.3953 797.028 32.4065 795.561 30.9402C794.095 29.4739 792.106 28.6501 790.033 28.6501ZM778.304 33.1325L774.799 29.6275L778.304 26.1224V33.1325Z" fill="white"></path>
</g>
<g clip-path="url(#clip1_400_2294)">
<path d="M1096.96 25.0671C1096.96 25.6954 1096.77 26.3095 1096.42 26.8319C1096.07 27.3543 1095.58 27.7614 1095 28.0019C1094.42 28.2423 1093.78 28.3052 1093.16 28.1826C1092.54 28.0601 1091.98 27.7575 1091.53 27.3133C1091.09 26.869 1090.79 26.303 1090.66 25.6869C1090.54 25.0707 1090.6 24.432 1090.85 23.8515C1091.09 23.2711 1091.49 22.775 1092.02 22.426C1092.54 22.0769 1093.15 21.8906 1093.78 21.8906C1094.62 21.8906 1095.43 22.2253 1096.03 22.821C1096.62 23.4167 1096.96 24.2247 1096.96 25.0671ZM1110.72 21.8906C1110.09 21.8906 1109.48 22.0769 1108.96 22.426C1108.43 22.775 1108.03 23.2711 1107.79 23.8515C1107.55 24.432 1107.48 25.0707 1107.61 25.6869C1107.73 26.303 1108.03 26.869 1108.48 27.3133C1108.92 27.7575 1109.49 28.0601 1110.1 28.1826C1110.72 28.3052 1111.36 28.2423 1111.94 28.0019C1112.52 27.7614 1113.01 27.3543 1113.36 26.8319C1113.71 26.3095 1113.9 25.6954 1113.9 25.0671C1113.9 24.2247 1113.56 23.4167 1112.97 22.821C1112.37 22.2253 1111.56 21.8906 1110.72 21.8906Z" fill="white" fill-opacity="0.24"></path>
<path d="M1114.95 25.0652C1114.95 24.2732 1114.73 23.4971 1114.31 22.8251C1113.89 22.1532 1113.29 21.6123 1112.58 21.2638C1111.87 20.9154 1111.07 20.7734 1110.29 20.854C1109.5 20.9346 1108.75 21.2345 1108.12 21.7197C1107.5 22.2049 1107.02 22.8559 1106.75 23.5989C1106.47 24.3418 1106.41 25.1468 1106.57 25.9226C1106.73 26.6983 1107.1 27.4137 1107.65 27.9874C1108.2 28.5611 1108.89 28.9702 1109.66 29.1682V31.4183C1109.66 31.6991 1109.55 31.9685 1109.35 32.167C1109.15 32.3655 1108.88 32.4771 1108.6 32.4771H1095.89C1095.61 32.4771 1095.34 32.3655 1095.15 32.167C1094.95 31.9685 1094.84 31.6991 1094.84 31.4183V29.1682C1095.83 28.9105 1096.7 28.2976 1097.28 27.4444C1097.86 26.5913 1098.11 25.5563 1097.98 24.5337C1097.85 23.5111 1097.35 22.5709 1096.58 21.8894C1095.8 21.208 1094.81 20.832 1093.78 20.832C1092.75 20.832 1091.75 21.208 1090.98 21.8894C1090.2 22.5709 1089.7 23.5111 1089.57 24.5337C1089.44 25.5563 1089.69 26.5913 1090.27 27.4444C1090.85 28.2976 1091.72 28.9105 1092.72 29.1682V31.4183C1092.72 32.2607 1093.05 33.0687 1093.65 33.6645C1094.24 34.2601 1095.05 34.5948 1095.89 34.5948H1101.19V37.9037C1100.19 38.1614 1099.32 38.7743 1098.74 39.6274C1098.16 40.4806 1097.92 41.5155 1098.05 42.5382C1098.18 43.5609 1098.67 44.501 1099.45 45.1825C1100.22 45.8639 1101.22 46.2399 1102.25 46.2399C1103.28 46.2399 1104.27 45.8639 1105.05 45.1825C1105.82 44.501 1106.32 43.5609 1106.45 42.5382C1106.58 41.5155 1106.33 40.4806 1105.75 39.6274C1105.17 38.7743 1104.3 38.1614 1103.31 37.9037V34.5948H1108.6C1109.44 34.5948 1110.25 34.2601 1110.85 33.6645C1111.44 33.0687 1111.78 32.2607 1111.78 31.4183V29.1682C1112.69 28.9322 1113.49 28.4013 1114.07 27.6589C1114.64 26.9164 1114.95 26.0042 1114.95 25.0652ZM1091.66 25.0652C1091.66 24.6464 1091.78 24.237 1092.02 23.8887C1092.25 23.5405 1092.58 23.269 1092.97 23.1088C1093.35 22.9485 1093.78 22.9066 1094.19 22.9883C1094.6 23.07 1094.98 23.2717 1095.27 23.5678C1095.57 23.864 1095.77 24.2413 1095.85 24.6521C1095.94 25.0629 1095.89 25.4887 1095.73 25.8756C1095.57 26.2626 1095.3 26.5933 1094.95 26.826C1094.6 27.0587 1094.2 27.1829 1093.78 27.1829C1093.21 27.1829 1092.68 26.9598 1092.28 26.5627C1091.88 26.1655 1091.66 25.6269 1091.66 25.0652ZM1104.36 42.0067C1104.36 42.4256 1104.24 42.8349 1104.01 43.1832C1103.78 43.5314 1103.44 43.8028 1103.06 43.9631C1102.67 44.1234 1102.24 44.1654 1101.83 44.0837C1101.42 44.0019 1101.05 43.8002 1100.75 43.5041C1100.45 43.2079 1100.25 42.8306 1100.17 42.4197C1100.09 42.009 1100.13 41.5832 1100.29 41.1962C1100.45 40.8092 1100.72 40.4786 1101.07 40.2458C1101.42 40.0131 1101.83 39.889 1102.25 39.889C1102.81 39.889 1103.35 40.1121 1103.74 40.5092C1104.14 40.9064 1104.36 41.4451 1104.36 42.0067ZM1110.72 27.1829C1110.3 27.1829 1109.89 27.0587 1109.54 26.826C1109.19 26.5933 1108.92 26.2626 1108.76 25.8756C1108.6 25.4887 1108.56 25.0629 1108.64 24.6521C1108.72 24.2413 1108.92 23.864 1109.22 23.5678C1109.52 23.2717 1109.89 23.07 1110.3 22.9883C1110.72 22.9066 1111.14 22.9485 1111.53 23.1088C1111.92 23.269 1112.25 23.5405 1112.48 23.8887C1112.71 24.237 1112.84 24.6464 1112.84 25.0652C1112.84 25.6269 1112.61 26.1655 1112.22 26.5627C1111.82 26.9598 1111.28 27.1829 1110.72 27.1829Z" fill="white"></path>
</g>
<defs>
<clipPath id="clip0_400_2294">
<rect width="25.9307" height="25.9307" fill="white" transform="translate(772.182 20.5723)"></rect>
</clipPath>
<clipPath id="clip1_400_2294">
<rect width="25.9307" height="25.9307" fill="white" transform="translate(1089.29 20.5723)"></rect>
</clipPath>
</defs>
</svg>